<?xml version="1.0" encoding="utf-8"?>
<!-- Generator: Adobe Illustrator 21.1.0, SVG Export Plug-In . SVG Version: 6.00 Build 0)  -->
<svg version="1.1" id="GITES_DE_FRANCE" xmlns="http://www.w3.org/2000/svg" xmlns:xlink="http://www.w3.org/1999/xlink" x="0px"
	 y="0px" viewBox="0 0 283.5 283.5" style="enable-background:new 0 0 283.5 283.5;" xml:space="preserve">
<style type="text/css">
	.st0{fill:#FFFFFF;}
	.st1{fill:#00663F;}
	.st2{fill:#FFDF30;}
	.st3{fill:#E30613;}
</style>
<title>Logo 4 couleurs</title>
<circle class="st0" cx="141.7" cy="141.7" r="141.7"/>
<path class="st1" d="M35.3,199.7c-2.4,1.7-5.8,1.2-7.6-1.3c-0.2-0.2-0.3-0.5-0.4-0.7c-30.7-63.8-3.8-140.4,60-171.1
	C148.1-2.6,221.2,20.3,254.4,79c1.5,2.6,0.6,5.9-2.1,7.4c-0.2,0.1-0.3,0.2-0.5,0.3c-3.6,1.6-8.4,3.4-11.9,4.9c-3,1.2-6.3,0-7.9-2.7
	C202.5,39.6,138.7,23.5,89.5,53c-45.4,27.2-63.1,84-41.2,132.2c1.1,2.4,0.3,5.1-1.8,6.6L35.3,199.7z"/>
<path class="st1" d="M66.5,207.2c-4.9-5.8-13.5-6.4-19.6-1.2l-0.1,0.1c-2.9,2.3-4.8,5.7-5.3,9.3c-0.4,3.7,0.7,7.4,3.2,10.2
	c2.6,3.1,6.3,5.1,10.3,5.6h0.2l9.1-7.6l-7.6-9l-3.9,3.3l4.2,5l-3.2,2.7c-2-0.5-3.7-1.6-5-3.2c-1.5-1.7-2.1-3.9-1.8-6.1
	c0.4-2.3,1.7-4.5,3.6-5.9c1.7-1.5,3.9-2.3,6.2-2.3c2.1,0,4.1,0.9,5.5,2.5c1.7,1.9,2.5,4.4,2.3,6.9v0.5l5.5-0.1v-0.5
	C70.3,213.6,69,210,66.5,207.2z"/>
<path class="st1" d="M76.9,218.3l4.5,3.7L64.3,243l-4.5-3.7L76.9,218.3z"/>
<path class="st1" d="M86.8,231.7l-5.7-3.3l2.5-4.3l16.3,9.5l-2.5,4.3l-5.6-3.3l-11.2,19.1l-5-2.9L86.8,231.7z"/>
<path class="st1" d="M102.6,234.6l14.1,5l-1.7,4.7l-8.6-3l-2,5.6l7.5,2.6l-1.6,4.5l-7.5-2.6l-2.2,6.1l8.7,3.1l-1.7,4.7l-14.2-5
	L102.6,234.6z"/>
<path class="st1" d="M117.4,261.5l0.4,0.3c0.6,0.5,1.2,0.8,1.9,1.2c0.8,0.4,1.7,0.6,2.6,0.8c1,0.2,2.1,0.1,3.1-0.4
	c0.8-0.4,1.3-1.2,1.4-2.2c0.1-0.8,0-1.7-0.5-2.5c-0.7-1-1.7-1.8-2.8-2.5c-1.9-1-3.5-2.5-4.8-4.2c-1-1.5-1.3-3.3-1-5
	c0.1-1,0.5-2,1.1-2.9c0.5-0.9,1.3-1.6,2.1-2.1c0.9-0.6,2-1,3.1-1.1c1.3-0.2,2.5-0.2,3.8,0c1.4,0.2,2.7,0.6,4,1.2c1,0.4,2,1,2.8,1.7
	l-3.2,3.8c-0.2-0.2-0.4-0.3-0.7-0.5c-0.3-0.2-0.7-0.4-1-0.5c-0.4-0.2-0.7-0.3-1.1-0.4c-0.3-0.1-0.7-0.2-1.1-0.3
	c-1-0.2-2-0.1-2.9,0.2c-0.8,0.3-1.3,1-1.4,1.8c-0.1,0.4,0,0.9,0.1,1.3c0.2,0.4,0.5,0.8,0.8,1.1c0.4,0.4,0.8,0.8,1.3,1.1l1.6,1.2
	c1,0.7,1.9,1.5,2.7,2.3c0.7,0.7,1.3,1.4,1.8,2.2c0.4,0.7,0.7,1.5,0.9,2.3c0.1,0.8,0.1,1.7,0,2.6c-0.2,1.2-0.6,2.3-1.2,3.3
	c-0.6,0.9-1.4,1.7-2.3,2.2c-1,0.6-2,0.9-3.1,1.1c-1.2,0.2-2.4,0.2-3.6,0c-1.6-0.2-3.2-0.7-4.7-1.3c-1.1-0.5-2.1-1-3.1-1.7
	L117.4,261.5z"/>
<path class="st1" d="M152,243.4c0.5-0.3,1.1-0.6,1.7-0.8c0.7-0.3,1.5-0.5,2.3-0.8s1.6-0.5,2.4-0.7s1.4-0.4,2-0.5c2-0.4,4-0.4,5.9,0
	c1.7,0.4,3.3,1.2,4.7,2.2c1.3,1.1,2.5,2.4,3.3,4c0.9,1.6,1.5,3.4,1.8,5.2c0.3,1.7,0.4,3.4,0.2,5.1c-0.2,1.7-0.7,3.4-1.4,4.9
	c-0.8,1.6-2,2.9-3.4,4c-1.6,1.2-3.6,2-5.6,2.4c-0.6,0.1-1.2,0.2-2,0.3c-0.8,0.1-1.6,0.2-2.4,0.2s-1.7,0.1-2.4,0.1
	c-0.7,0-1.3,0-2-0.1L152,243.4z M162,263.7c0.5,0.1,1,0.1,1.5,0c0.6,0,1.2-0.1,1.8-0.3c1-0.2,2-0.6,2.7-1.3c0.7-0.6,1.3-1.4,1.8-2.3
	c0.4-1,0.7-2,0.8-3.1c0.1-1.2,0-2.4-0.2-3.5c-0.2-1.2-0.6-2.3-1.1-3.4c-0.5-1-1.1-1.9-1.9-2.6c-0.7-0.7-1.6-1.2-2.6-1.5
	c-1.1-0.3-2.2-0.4-3.3-0.1c-0.6,0.1-1.2,0.3-1.8,0.5c-0.4,0.2-0.8,0.3-1.1,0.6L162,263.7z"/>
<path class="st1" d="M176.5,237.3l13.8-6l2,4.6l-8.4,3.7l2.4,5.4l7.3-3.2l1.9,4.4l-7.3,3.2l2.6,5.9l8.4-3.7l2,4.6l-13.8,6
	L176.5,237.3z"/>
<path class="st1" d="M208,219.2l10.8-10.4l3.4,3.6l-6.6,6.3l4.3,4.5l5.7-5.5l3.3,3.4l-5.7,5.5l7.8,8l-4.2,4.1L208,219.2z"/>
<path class="st1" d="M239.1,210.9l8,5.4l-3.3,4.8l-22-15c0.3-1.1,0.7-2.2,1.2-3.3c0.6-1.3,1.3-2.5,2.1-3.7c1.5-2.2,3.7-3.8,6.3-4.3
	c1.2-0.2,2.4-0.2,3.6,0c2.7,0.5,5,2.2,6.3,4.6c0.7,1.3,1,2.7,0.9,4.2l12.3,1.6l-3.6,5.2l-10.4-1.8l-0.1,0.1L239.1,210.9z M235,208.1
	l1.3-1.9c0.3-0.4,0.5-0.9,0.6-1.4c0.1-0.5,0.1-1-0.1-1.5c-0.1-0.5-0.3-1-0.6-1.4c-0.6-0.8-1.5-1.5-2.5-1.7c-1.5-0.4-3.1,0.2-4,1.6
	c-0.2,0.2-0.3,0.6-0.6,1c-0.2,0.4-0.4,0.7-0.4,1.1L235,208.1z"/>
<path class="st1" d="M264.3,184.7l2.1-5.1l-29.9-1.1l-1.8,4.2l21.8,20.5l2.1-5l-5-4.6l3.8-9.2L264.3,184.7z M249.5,189.8l-6.5-6.1
	l8.9,0.4L249.5,189.8z"/>
<polygon class="st1" points="271.5,153.2 244,148.4 243.2,153.5 260,156.4 241.2,164.7 240.4,169.3 267.8,174 268.7,168.9 
	251.4,165.9 270.7,157.4 "/>
<path class="st1" d="M268.5,124c0.8,1.1,1.5,2.3,1.9,3.5c0.5,1.3,0.7,2.6,0.8,4c0.1,2-0.2,3.9-0.8,5.8c-1.2,3.6-3.8,6.5-7.1,8.2
	c-1.7,0.9-3.6,1.4-5.5,1.4c-1.9,0.1-3.8-0.2-5.6-0.9c-1.7-0.7-3.3-1.6-4.6-2.9c-1.4-1.3-2.5-2.8-3.3-4.5c-0.8-1.7-1.3-3.6-1.4-5.6
	c-0.1-1.4,0-2.9,0.4-4.3c0.3-1.3,0.8-2.6,1.6-3.7l4.2,2.3c-0.5,0.8-0.8,1.8-1,2.7c-0.2,0.8-0.2,1.7-0.2,2.5c0.1,1.2,0.4,2.4,0.9,3.4
	c0.5,1,1.2,2,2.1,2.7c0.9,0.8,1.9,1.4,3,1.8c2.4,0.8,5,0.7,7.3-0.4c1.1-0.5,2-1.2,2.8-2.1c0.8-0.9,1.4-1.8,1.8-2.9
	c0.4-1.1,0.6-2.3,0.5-3.5c-0.1-0.8-0.2-1.7-0.5-2.4c-0.3-0.9-0.7-1.8-1.3-2.6L268.5,124z"/>
<path class="st1" d="M242.1,122.1l-4-14.5l4.8-1.3l2.4,8.8l5.7-1.6l-2.1-7.7l4.6-1.3l2.1,7.7l6.2-1.7l-2.4-8.9l4.8-1.3l4,14.5
	L242.1,122.1z"/>
<polygon class="st1" points="85.3,212.9 77.9,211.8 77.7,215.5 82.7,216.1 84.5,221 88.1,219.9 "/>
<path class="st2" d="M199.9,114.4l-9.3-2.3c-0.7-0.2-7.4-2-12.8-3.7c-2.7-0.9-5.2-2.3-7.3-4.4l-22.4-21.4c-1-0.8-2.2-1.2-3.4-1.2
	l-10.3,2.2c-1.1,0.2-2.1,1-2.4,2.2l-0.5,8c-0.3,1.2-1.1,2.3-2.1,3.1l-11.5,12.4c-1,0.6-2.3,0.7-3.4,0.3l-10.7-5.1
	c-0.2-0.1-0.5-0.1-0.8-0.1l-4.6,1.3c-0.7,0.2-1.1,1-0.8,1.7l2.8,9.3l-32.4-1.4c-0.9,0.1-1.6,0.9-1.5,1.8c0,0.1,0,0.2,0.1,0.3
	l5.7,9.1l-2.5,3.7c0.3,1.2,1.2,2.2,2.3,2.7l17.7,6.5c1.1,0.6,2,1.5,2.5,2.6l5.2,21l6.1,12l-5.4-1.3l-7,28.6c-0.3,1.1,0.2,2.3,1.1,3
	l49.2,14.4c1.1,0.3,2.2-0.2,2.7-1.2l10.2-10.2c1.1-0.6,2.3-0.7,3.5-0.4l25.1,3.3c0.3,0.1,0.7,0.1,1,0l9.6-0.9c1.9-0.5,3-2.5,2.5-4.4
	c0-0.1-0.1-0.3-0.1-0.4l-9.9-44.4l-7.7,2.6l16.7-21.1c0.9-1,1.5-2.2,1.8-3.4l4.3-22.6C201.7,115.8,201.1,114.7,199.9,114.4
	C200,114.4,200,114.4,199.9,114.4z"/>
<path class="st3" d="M223.2,92.2l-76.9-32.9c-3.2-1.4-6.8-1.4-10,0l-23.6,10.3v-2.1c0-1.9-1.6-3.5-3.5-3.5c0,0,0,0,0,0H99
	c-1.9,0-3.5,1.6-3.5,3.5v9.6L60.4,92.2c-2.5,1.1-3.6,4-2.6,6.6l1.8,4c1,2.5,3.8,3.7,6.3,2.8c0,0,0.1,0,0.1-0.1l75.9-32.7l75.9,32.7
	c2.5,1,5.3-0.1,6.4-2.6c0,0,0-0.1,0-0.1l1.6-4C226.9,96.2,225.7,93.3,223.2,92.2z"/>
<path class="st1" d="M137.1,117c-4.3-4.7-8.1-16.3-3.6-20.4s15.6,0.9,19.9,5.6c4.1,4.5,3.7,11.5-0.8,15.6
	C148.2,121.8,141.2,121.5,137.1,117z"/>
<path class="st1" d="M186.2,84.7c-2.3-0.6-2.9,10.7-14.9,26.6c-2.5,3.3-12.6,14.1-21,14.5c-15.9,0.8-21.9-7.1-30.8-18.5
	c-1.2-1.5-5.3-7.8-9.7-11.3c-2.2-1.7-3.3-1-4.1,0c-0.3,0.7-0.4,1.4-0.3,2.1c0.1,1.5,0.5,3.1,1.1,4.5c1.4,3.2,5,10.3,8.1,15.7
	c3.8,6.5,13.5,17.2,13.1,29.2c-0.4,11.8-5.5,24-23.6,62.2c0,0-2.8,6.3-0.3,6.4c7,0.2,28.9-41.6,32.6-43c3.1-1.1,3.8,3,5.4,17
	s4.7,38.8,4.7,38.8s0.9,10.6,3.6,10.2s5.9-10.9,7-39.4c0.8-20,0-30.6,0-36.5c0-4.7,0.7-12.1,2.7-16.3c1-2.1,2.3-4,3.8-5.7
	c15.8-19.1,22.5-38.6,24.1-44.2C189.5,90.5,190.1,85.8,186.2,84.7z"/>
</svg>
