<?xml version="1.0" encoding="utf-8"?>
<!-- Generator: Adobe Illustrator 18.0.0, SVG Export Plug-In . SVG Version: 6.00 Build 0)  -->
<!DOCTYPE svg PUBLIC "-//W3C//DTD SVG 1.1//EN" "http://www.w3.org/Graphics/SVG/1.1/DTD/svg11.dtd">
<svg version="1.1" id="Calque_1" xmlns="http://www.w3.org/2000/svg" xmlns:xlink="http://www.w3.org/1999/xlink" x="0px" y="0px"
	 width="302.3px" height="304.8px" viewBox="0 0 302.3 304.8" enable-background="new 0 0 302.3 304.8" xml:space="preserve">
<g>
	<g>
		<path fill="none" d="M191.4,204.1c-0.2-0.7-0.3-1.3-0.4-2l0.8,4.1C191.7,205.6,191.6,204.9,191.4,204.1z"/>
		<path fill="none" d="M117.6,18.7l-0.2-2c-0.2,0.7-0.4,1.4-0.5,2.1L117.6,18.7z"/>
		<path fill="none" d="M205.6,207.2l-3.6-4.6C203.5,204.9,204.7,206.6,205.6,207.2z"/>
		<path fill="#F0F0EF" d="M203.1,93.8l2.1-1.8l29.6-47.7C215,67.1,200,90.1,200,90.1C197.9,93,196.9,95.7,203.1,93.8z"/>
		<path fill="#00823F" d="M300.5,109.6c-2.5-0.8-4.9-7.3-5.6-9.6c-1.3-4.1-5-4.5-6.7-8.1c-1.8-3.7-2-5.2-4.8-8.7
			c-1.8-2.3-4.7-5-6.1-7.3c-3.7-6-12.2-10.1-17.7-14.2c-7-5.3-22.8,3-27.9,7.6c3.6-2-1.6,1.8-2.2,2.4c-3.4,2.9-6.9,5.8-10.3,8.7
			c-5,4.2-10,8.4-15,12.7c-9.5,8-1.8-6.5-0.1-9c9.5-13.7,19.8-27,30.8-39.6C219.7,57.5,207.3,74,196,90.6c-9.1,13.3-7.8-30.4-7.8-34
			c0.1-8.7,0.5-16.5-5.7-23.4c-5.2-5.7-12.2-9-17.7-14.2c-0.7-0.7-3.6-6.2-4.9-4.9c-3.6,3.6-7.3-4.1-9.4-5.9
			c-1.5-1.3-4.6-1.9-6.6-3.4c-3.3-2.6-4.4,0.7-7.4-1.4c-2.6-1.8-11.5-4.7-14.2-2.5c-4.2,3.4-5.8,0-7.8,6c-2,6.1,4.3,14.2-5.7,10.7
			c-5.7-2-12.1-4.4-18.3-3.4c-5,0.8-10-2.7-14.3,1.8c-2.1,2.2-10.7,0.7-11.7,2.4c-2.1,3.3-10.3,1.5-13.6,3.4c-1.1,0.6-4.5,0.3-5,1.7
			c-1.3,3.7,4.1,2.9,0.2,5.4c1.9-1.3-0.3,9.7-0.2,9.6c-0.3,3.5,5.1,7.6,2.1,10.6c-2.5,2.5-0.1,5.9,1,8.6c1.8,4.4-1.6,3.5-0.7,7.6
			c1.4,6.6,8.5,14.4,14.8,16.9c6.5,2.5,4,9.5-2.5,8.8c-3.5-0.4-6.9-3.1-10.6-1.9c-1.7,0.2-3.4,0.3-5.1,0.3c-3.1,0.3-4.7,3.1-7.6,3.8
			c-4.1,1-3.6,0.4-4.7,3.5c-1,2.8-6.6,2.5-8.3,4.5c-3.3,3.7-8,10.3-10.6,15c-1.6,2.8,3.4,1.6-1,5.1c-2.9,2.3-5.6,3.6-1.8,5.6
			c-2.9,3.8-3.4,6.4-5.2,10c-1.3,2.5-1,3.6-1.6,6c-0.5,1.9,0.5,4.3-0.2,6c-1.9,4.5-7.4,7.5-0.3,9.2c3.6,0.8,4.8,6.5,8.2,7.5
			c7.8,2.2,9.6,14.8,16.9,17.7c1.9,0.7,13.4,3.2,14,4.3c1.4,2.7,9-2.2,12.2-0.2c-1.2,0.8-2.6,1.8-4,2.3c0.1-0.1,0.2-0.2,0.3-0.4
			c-9.3,3-15.7,13.1-16,22.8c-0.2,5.1-6.7,20.3,0.4,21.6c1.6,0.3-1.1,10.7-0.3,12.3c0.9,0.5,1.8,0.8,2.7,0.9
			c0.7,0.9-0.7,5.4,1.7,5.4c3.2,0.1,2,6.1,3.9,5.8c4.6-0.8,5.1,2.8,6.9,6.7c0.8,1.4,2,2,3.6,1.8c2.9,0.5,1.4,4.2,2.8,6.1
			c1.1,0.9,2.3,1.5,3.6,1.9c1.3,1.4,0.8,5.8,3.7,5.8c0.9,0,10.5,13.2,10.5,14.1c0,4.3,3.9,2.7,4.5,6.9c0.9,5.3,2.4,3.9,6.3,0.7
			c2.5-2.1,2.7,1.1,5.8-2.3c1.2-1.3,6.8-2.9,8.7-3.5c5.5-1.6,2.8,0.5,6.5-3.9c1.4-0.6,2.6-0.3,3.7,0.9c2.5,0.9,4.2-2,6.2-2.7
			c1.4,0.2,2.8,0.6,4.1,1.2c1.1-0.1,5.2-4.4,6.1-3.6c1.4,1.4,6.2-6.5,6.1-6.7c2.1,4.7,16.5-2.4,19.3-5.7c2.9-3.4,7.6-2.3,10.5-7
			c-0.2,0.3,5.5-0.3,7.7-3.2c1.7-2.2,2.1,0.4,3.5,1c1.8,0.8,4.5-5.8,6.4-6.4c6.7-2.1,8.3-9.4,9.9-15.2c0.6-2.1,3.5-2.2,4-4.8
			c0.6-3.8-0.8-6.8,0.3-10.7c2.6-9.1,0.1-18.1-1.7-27.1c2.3,0,7.1-1,9.1,0c4.2,6.9,6.8,11.4,13.9,15.2c1.9,1,3.7,1.7,4.4,3.8
			c0.8,2.5,3.8,0.5,5.5,1.4c1.4,0.7,2,3.9,4,3.6c2.9-0.5,4.5-0.6,6.9,1.1c2.1,1.4,2.5,1.7,4.4,0.5c2.5-1.5,3.1,1.4,4.9,2.6
			c0.3,0.2,14.2,2.6,12.9,3.9c0.9-0.9,9.4,1.2,11.4,1c5.4-0.6,9.7-0.5,10.6-6.8c0.7-4.5,2.8-9.2,3.1-13.6c0.2-2.5,4.1-3.8,3.2-6.9
			c-0.8-2.6,0.2-3.6,1.8-5.7c1.7-2.3,3.5-10.9,3.5-13.9c0-5.1,0.5-10.5,1.6-15.5c1.6-7.5,0.2-18.5-3.4-25
			c-2.8-5.1-2.2-10.3-6.1-15.1c-0.4-0.4-10.2-10.7-6.4-10.4c2.4-0.6,4.8-1.2,7.3-1.7c-0.5,0.4-0.9,0.8-1.5,1.1
			c5.4,0.5,9.5,1.2,13.8-2.6C298.6,118.1,305.4,111.1,300.5,109.6C299.3,109.2,301.8,110,300.5,109.6z M117.6,18.7
			c-1.2,0.5-1.2-0.1-0.2-2C117.5,17.4,117.6,18,117.6,18.7z M191.4,204.1c0.1,0.7,0.3,1.4,0.4,2.2c-0.3-1.4-0.6-2.8-0.8-4.1
			C191.1,202.8,191.3,203.5,191.4,204.1C191.6,204.9,191.3,203.4,191.4,204.1z M202.1,202.6l3.6,4.6
			C204.7,206.6,203.5,204.9,202.1,202.6z"/>
	</g>
	<path fill="#FFFFFF" d="M177.4,202.5H159v-37.3c0,0-2.1-11-14.3-11c-13,0-14.6,11-14.6,11v37.3H98.6H96h-1.3h-1.3H81.2v-79.8h17.5
		l0.4-1.1l-0.4,0.3H81.2c0,0-1.6-1.4-1.4-1.3c0.3,0.1,10.4-27.4,10.4-27.4l9.5,26.4l7.2-22.3h17.4v-6.8h-0.9v-0.6h0.9v-2.5h-0.9
		v-1.3h0.9h8.2h1.1v1.3h-1.1v2.5h1.1v0.6h-1.1v6.8H154v-6.8h-0.9v-0.6h0.9v-2.5h-0.9v-1.3h0.9h8.2h1.2v1.3h-1.2v2.5h1.2v0.6h-1.2
		v6.8h20.2l19.1,40.9v51.3l-10.9,13"/>
</g>
</svg>
