<?xml version="1.0" encoding="UTF-8" standalone="no"?>
<svg
   viewBox="0 0 400 399.99999"
   height="400"
   width="400"
   xml:space="preserve"
   id="svg2"
   version="1.1"
   sodipodi:docname="logoGitedes.svg"
   inkscape:version="1.2 (dc2aedaf03, 2022-05-15)"
   inkscape:export-filename="logoGitedes.svg"
   inkscape:export-xdpi="96"
   inkscape:export-ydpi="96"
   xmlns:inkscape="http://www.inkscape.org/namespaces/inkscape"
   xmlns:sodipodi="http://sodipodi.sourceforge.net/DTD/sodipodi-0.dtd"
   xmlns="http://www.w3.org/2000/svg"
   xmlns:svg="http://www.w3.org/2000/svg"
   xmlns:rdf="http://www.w3.org/1999/02/22-rdf-syntax-ns#"
   xmlns:cc="http://creativecommons.org/ns#"
   xmlns:dc="http://purl.org/dc/elements/1.1/"><sodipodi:namedview
     id="namedview107"
     pagecolor="#505050"
     bordercolor="#eeeeee"
     borderopacity="1"
     inkscape:showpageshadow="0"
     inkscape:pageopacity="0"
     inkscape:pagecheckerboard="0"
     inkscape:deskcolor="#505050"
     showgrid="false"
     inkscape:zoom="0.26362487"
     inkscape:cx="485.53842"
     inkscape:cy="574.68024"
     inkscape:window-width="958"
     inkscape:window-height="1008"
     inkscape:window-x="946"
     inkscape:window-y="0"
     inkscape:window-maximized="0"
     inkscape:current-layer="svg2" /><metadata
     id="metadata8"><rdf:RDF><cc:Work
         rdf:about=""><dc:format>image/svg+xml</dc:format><dc:type
           rdf:resource="http://purl.org/dc/dcmitype/StillImage" /></cc:Work></rdf:RDF></metadata><defs
     id="defs6" /><g
     id="g482"
     transform="translate(-178.19671,-336.44926)"><g
       transform="matrix(1.3333333,0,0,-1.3333333,378.19604,530.94652)"
       id="g20"><path
         id="path643"
         style="display:inline;fill:#f39415;fill-opacity:1;fill-rule:nonzero;stroke:none"
         d="M 0,0 C 0.879,-2.516 6.962,-21.529 6.964,-40.583 6.967,-59.732 0.884,-78.921 0,-81.451 c -0.881,2.523 -7.132,21.625 -7.132,40.726 0,19.101 6.251,38.203 7.132,40.725 m 150.837,59.922 -5.704,3.164 c -3.996,2.221 -8.15,4.199 -12.435,5.911 -4.231,1.691 -8.594,3.124 -13.06,4.276 l -0.02,0.005 h -0.015 -0.006 c -4.421,1.138 -8.941,2.01 -13.534,2.593 -4.513,0.574 -9.097,0.871 -13.731,0.871 -8.199,0 -16.198,-0.911 -23.894,-2.636 C 60.521,72.332 52.924,69.696 45.759,66.303 38.474,62.853 31.628,58.614 25.335,53.701 19.031,48.778 13.281,43.177 8.2,37.012 L 8.184,37.023 8.103,36.924 C 6.612,35.111 5.179,33.249 3.808,31.342 2.48,29.496 1.21,27.609 0,25.685 c -1.209,1.924 -2.479,3.811 -3.807,5.657 -1.371,1.907 -2.804,3.769 -4.295,5.582 L -8.183,37.023 -8.2,37.012 c -5.08,6.165 -10.831,11.766 -17.135,16.689 -6.292,4.913 -13.139,9.152 -20.423,12.602 -7.165,3.393 -14.762,6.029 -22.679,7.803 -7.697,1.725 -15.696,2.636 -23.895,2.636 -4.633,0 -9.218,-0.297 -13.731,-0.871 -4.592,-0.583 -9.112,-1.455 -13.533,-2.593 h -0.006 -0.016 l -0.019,-0.005 c -4.467,-1.152 -8.829,-2.585 -13.06,-4.276 -4.285,-1.712 -8.44,-3.69 -12.436,-5.911 l -5.703,-3.164 -0.149,-0.082 0.107,-0.132 4.142,-5.054 h 10e-4 c 5.105,-6.226 10.891,-11.879 17.241,-16.841 6.305,-4.928 13.165,-9.178 20.47,-12.637 2.032,-0.962 4.102,-1.866 6.207,-2.706 2.04,-0.814 4.109,-1.569 6.202,-2.259 -1.236,-2.438 -10.69,-25.884 -4.823,-43.876 l 68.443,23.858 c 7.822,2.933 1.564,13.884 -4.497,11.537 L -89.51,-7.042 c -1.564,3.911 0.979,24.444 15.053,33.722 0,0 -2.313,0.305 -3.209,0.445 -0.896,0.139 -1.793,0.292 -2.691,0.457 h -0.001 l -0.157,0.027 -0.229,0.044 -0.014,0.002 h -0.006 l -0.209,0.041 -0.169,0.033 h -0.003 l -0.058,0.011 v 0 l -0.23,0.044 -0.1,0.021 -0.126,0.028 h -0.003 l -0.23,0.043 -0.005,0.002 -0.039,0.005 v 0 l -0.176,0.036 v 0.001 l -0.202,0.043 -0.003,10e-4 -0.028,0.005 -0.226,0.049 -0.002,10e-4 -0.137,0.027 h -0.003 l -0.091,0.016 -0.218,0.049 -0.071,0.016 h -0.004 l -0.158,0.033 -0.228,0.049 -0.016,0.004 h -0.006 l -0.201,0.045 -0.17,0.038 -0.054,0.015 -0.008,0.002 -0.223,0.049 h -0.001 l -0.103,0.022 v 0 l -0.126,0.028 v -10e-4 l -0.219,0.054 -0.011,0.003 h -0.003 l -0.036,0.005 -0.18,0.041 -0.196,0.049 -0.008,0.002 -0.027,0.006 V 28.57 l -0.218,0.054 -0.137,0.032 v 0.001 l -0.093,0.022 v -10e-4 l -0.223,0.055 -0.002,0.001 -0.071,0.016 -0.151,0.037 -0.224,0.055 -0.019,0.005 h -0.004 l -0.2,0.049 -0.164,0.043 -0.055,0.016 -0.007,0.002 -0.229,0.055 v 0 l -0.094,0.026 h -0.002 l -0.125,0.033 h -0.003 l -0.22,0.054 -0.025,0.008 -0.009,0.003 -0.185,0.05 v 0 l -0.196,0.054 -0.009,0.002 -0.019,0.004 -0.225,0.06 h -10e-4 l -0.127,0.032 -0.091,0.027 -0.004,0.001 -0.224,0.06 h -0.002 l -0.061,0.016 -0.154,0.044 -0.222,0.065 -0.021,0.006 h -0.008 l -0.198,0.054 -10e-4,10e-4 -0.164,0.044 -0.051,0.015 h -0.001 l -0.223,0.065 v 10e-4 c -2.531,0.726 -5.017,1.553 -7.453,2.471 -2.471,0.933 -4.893,1.963 -7.262,3.083 -5.524,2.615 -10.769,5.734 -15.667,9.296 -4.878,3.547 -9.416,7.535 -13.55,11.904 2.641,1.226 5.348,2.341 8.11,3.334 2.782,1.001 5.625,1.88 8.521,2.627 l 0.106,0.028 v 0.005 c 3.889,0.996 7.89,1.76 11.983,2.273 4.053,0.508 8.197,0.771 12.413,0.771 7.382,0 14.57,-0.815 21.475,-2.357 7.101,-1.587 13.908,-3.946 20.322,-6.983 4.307,-2.038 8.443,-4.384 12.378,-7.007 3.967,-2.644 7.73,-5.571 11.259,-8.75 1.954,-1.774 3.753,-3.56 5.381,-5.283 1.958,-2.071 3.673,-4.055 5.117,-5.823 0.261,-0.323 0.515,-0.639 0.755,-0.941 0.245,-0.305 0.457,-0.573 0.636,-0.802 0.305,-0.389 0.586,-0.754 0.844,-1.093 0.258,-0.338 0.508,-0.673 0.748,-0.996 v -0.001 c 0.299,-0.408 0.592,-0.814 0.875,-1.214 0.289,-0.408 0.575,-0.818 0.855,-1.227 l 0.032,-0.046 0.152,-0.223 c 0.948,-1.39 1.861,-2.807 2.738,-4.246 0.862,-1.415 1.69,-2.856 2.483,-4.322 -3.369,-7.138 -10.907,-31.696 -10.907,-54.587 0,-22.89 11.728,-58.04 17.042,-66.54 l 0.147,-0.241 0.148,0.241 c 2.874,4.598 15.369,36.103 16.567,66.54 1.016,25.835 -8.886,51.31 -10.432,54.587 0.793,1.466 1.621,2.907 2.482,4.322 0.877,1.439 1.79,2.856 2.739,4.246 l 0.151,0.223 0.032,0.046 c 0.281,0.409 0.566,0.819 0.856,1.227 0.283,0.4 0.576,0.806 0.875,1.214 v 0.001 c 0.24,0.323 0.49,0.658 0.747,0.996 0.258,0.339 0.539,0.704 0.844,1.093 0.18,0.229 0.392,0.497 0.636,0.802 0.241,0.302 0.495,0.618 0.756,0.941 1.444,1.768 3.159,3.752 5.117,5.823 1.628,1.723 3.427,3.509 5.381,5.283 3.528,3.179 7.291,6.106 11.259,8.75 3.934,2.623 8.071,4.969 12.377,7.007 6.415,3.037 13.222,5.396 20.323,6.983 6.905,1.542 14.092,2.357 21.474,2.357 4.217,0 8.36,-0.263 12.414,-0.771 4.093,-0.513 8.094,-1.277 11.982,-2.273 V 62.48 l 0.107,-0.028 c 2.895,-0.747 5.738,-1.626 8.52,-2.627 2.762,-0.993 5.469,-2.108 8.11,-3.334 -4.134,-4.369 -8.671,-8.357 -13.549,-11.904 -4.898,-3.562 -10.143,-6.681 -15.667,-9.296 -2.369,-1.12 -4.792,-2.15 -7.262,-3.083 -2.436,-0.918 -4.923,-1.745 -7.453,-2.471 V 29.736 L 89.31,29.671 89.258,29.656 89.095,29.612 89.094,29.611 88.896,29.557 H 88.887 L 88.867,29.551 88.645,29.486 88.491,29.442 88.43,29.426 H 88.428 L 88.203,29.366 88.2,29.365 88.109,29.338 87.982,29.306 h -0.003 l -0.223,-0.06 -0.02,-0.004 -0.008,-0.002 -0.196,-0.054 v 0 l -0.186,-0.05 -0.008,-0.003 -0.025,-0.008 -0.22,-0.054 H 87.09 l -0.125,-0.033 h -0.003 l -0.094,-0.026 v 0 L 86.639,28.957 86.633,28.955 86.577,28.939 86.414,28.896 86.213,28.847 H 86.209 L 86.19,28.842 85.967,28.787 H 85.966 L 85.816,28.75 85.745,28.734 85.743,28.733 85.52,28.678 v 10e-4 L 85.426,28.657 V 28.656 L 85.29,28.624 H 85.289 L 85.072,28.57 v 0.001 L 85.045,28.565 85.037,28.563 84.84,28.514 84.66,28.473 84.625,28.468 h -0.003 l -0.011,-0.003 -0.219,-0.054 v 10e-4 l -0.126,-0.028 v 0 L 84.162,28.362 H 84.161 L 83.938,28.313 83.931,28.311 83.876,28.296 83.707,28.258 83.505,28.213 H 83.5 L 83.484,28.209 83.255,28.16 83.098,28.127 H 83.094 L 83.023,28.111 82.805,28.062 82.714,28.046 H 82.711 L 82.574,28.019 82.572,28.018 82.346,27.969 82.318,27.964 82.314,27.963 82.112,27.92 v -0.001 l -0.175,-0.036 v 0 l -0.039,-0.005 -0.005,-0.002 -0.23,-0.043 h -0.004 l -0.126,-0.028 -0.099,-0.021 -0.23,-0.044 v 0 l -0.058,-0.011 h -0.003 l -0.169,-0.033 -0.21,-0.041 H 80.758 L 80.745,27.653 80.516,27.609 80.359,27.582 H 80.358 C 79.46,27.417 78.562,27.264 77.667,27.125 76.77,26.985 74.457,26.68 74.457,26.68 88.532,17.402 91.074,-3.131 89.51,-7.042 L 37.493,11.73 C 31.431,14.077 25.173,3.126 32.995,0.193 l 68.443,-23.858 c 5.868,17.992 -3.587,41.438 -4.822,43.876 2.093,0.69 4.161,1.445 6.201,2.259 2.106,0.84 4.176,1.744 6.208,2.706 7.305,3.459 14.165,7.709 20.47,12.637 6.35,4.962 12.136,10.615 17.241,16.841 l 4.143,5.054 0.107,0.132 z"
         inkscape:label="path643" /></g><g
       transform="matrix(1.3333333,0,0,-1.3333333,380.59324,402.18933)"
       id="g24"><path
         id="path640"
         style="fill:#f39415;fill-opacity:1;fill-rule:evenodd;stroke:none"
         d="m 0,0 c 0,-1.287 -0.774,-2.331 -1.73,-2.331 -0.956,0 -1.731,1.044 -1.731,2.331 0,1.287 0.775,2.331 1.731,2.331 C -0.774,2.331 0,1.287 0,0" /></g><g
       transform="matrix(1.3333333,0,0,-1.3333333,392.80417,433.17439)"
       id="g28"><path
         id="path637"
         style="fill:#f39415;fill-opacity:1;fill-rule:evenodd;stroke:none"
         d="m 0,0 c -1.277,0 -2.313,1.319 -2.313,2.947 0,1.628 1.036,2.947 2.313,2.947 1.278,0 2.314,-1.319 2.314,-2.947 C 2.314,1.319 1.278,0 0,0 m -10.82,1.225 c -2.786,0 -5.046,3.302 -5.046,7.377 0,4.075 2.26,7.378 5.046,7.378 2.787,0 5.046,-3.303 5.046,-7.378 0,-4.075 -2.259,-7.377 -5.046,-7.377 M -21.896,0 c -1.277,0 -2.313,1.319 -2.313,2.947 0,1.628 1.036,2.947 2.313,2.947 1.279,0 2.315,-1.319 2.315,-2.947 C -19.581,1.319 -20.617,0 -21.896,0 M 6.919,-2.701 c -0.754,0 -1.365,0.778 -1.365,1.738 0,0.96 0.611,1.738 1.365,1.738 0.753,0 1.364,-0.778 1.364,-1.738 0,-0.96 -0.611,-1.738 -1.364,-1.738 m -35.479,0 c -0.753,0 -1.365,0.778 -1.365,1.738 0,0.96 0.612,1.738 1.365,1.738 0.753,0 1.365,-0.778 1.365,-1.738 0,-0.96 -0.612,-1.738 -1.365,-1.738 M 6.112,3.554 C 5.733,3.554 5.395,3.396 5.044,3.279 4.547,6.592 2.266,9.098 -0.48,9.098 c -0.678,0 -1.32,-0.177 -1.921,-0.456 -0.131,5.833 -3.864,10.517 -8.476,10.517 -4.611,0 -8.344,-4.684 -8.475,-10.517 -0.601,0.279 -1.243,0.456 -1.92,0.456 -2.757,0 -5.043,-2.527 -5.528,-5.859 -0.395,0.152 -0.79,0.315 -1.224,0.315 -2.385,0 -4.319,-2.462 -4.319,-5.499 0,-2.011 0.89,-3.693 2.155,-4.652 -0.003,0.011 4.487,3.743 19.422,3.743 14.936,0 19.08,-3.77 19.057,-3.731 1.257,0.961 2.14,2.637 2.14,4.64 0,3.037 -1.933,5.499 -4.319,5.499" /></g></g></svg>
